<svg width="32" height="32" viewBox="0 0 32 32" fill="none" xmlns="http://www.w3.org/2000/svg">
<path d="M24.4991 27.0007H7.5001C3.36586 27.0007 0.00244141 23.6372 0.00244141 19.503V9.2531C0.00244141 5.11816 3.36648 1.75412 7.50142 1.75412H13.3756C15.0339 1.82011 15.0326 4.18835 13.3756 4.25378H7.50142C4.74479 4.25378 2.5021 6.49647 2.5021 9.2531V19.5029C2.5021 22.2589 4.74423 24.5009 7.5001 24.5009H24.4991C27.2557 24.5009 29.4984 22.2583 29.4984 19.5016V9.25303C29.4984 8.29516 29.2591 7.39654 28.8064 6.65433C28.4469 6.06503 28.6332 5.29595 29.2225 4.9365C29.8117 4.57705 30.5808 4.76327 30.9403 5.35263C31.6323 6.48704 31.9981 7.83573 31.9981 9.25303V19.5016C31.9981 23.6366 28.634 27.0007 24.4991 27.0007ZM23.2493 30.7502C23.2493 30.0599 22.6897 29.5003 21.9994 29.5003H10.0011C8.3428 29.5663 8.34405 31.9346 10.0011 32H21.9994C22.6897 32 23.2493 31.4404 23.2493 30.7502ZM20.9407 11.8253C20.9407 11.8253 25.6522 6.43436 25.6592 6.42592C26.3277 5.61903 26.6419 4.60011 26.5441 3.55681C26.4462 2.51358 25.948 1.5709 25.1411 0.902363C24.3342 0.233892 23.3152 -0.0803779 22.272 0.0175462C21.2288 0.115408 20.286 0.613652 19.6215 1.41585L15.0418 6.88873C14.5988 7.4181 14.6687 8.2063 15.1982 8.6493C15.7275 9.09231 16.5158 9.02225 16.9587 8.49289L21.5425 3.01526C21.785 2.72249 22.127 2.54176 22.5055 2.50621C22.8844 2.4709 23.2537 2.58476 23.5463 2.82729C24.1414 3.29991 24.2341 4.24084 23.7431 4.82045L19.0586 10.1803C18.3508 10.983 18.9417 12.2598 19.9992 12.2527C20.3473 12.2527 20.6937 12.108 20.9407 11.8253ZM25.124 21.995H19.4373C17.779 21.929 17.7803 19.5607 19.4373 19.4953H25.124C26.7823 19.5613 26.781 21.9296 25.124 21.995ZM14.1204 20.4844C17.5444 18.6329 18.734 14.8635 16.4672 11.9845C15.604 10.9311 14.3843 10.2798 13.033 10.1508C9.66562 9.85826 7.72263 12.534 6.95536 15.2772C6.67846 16.0965 6.39213 16.9438 5.89057 17.8491C4.78479 19.8055 6.62204 22.0345 8.724 22.0013C10.3865 22.0014 12.5047 21.4059 14.1204 20.4844ZM12.7955 12.6393C13.4786 12.7044 14.096 13.0346 14.5338 13.5689C14.9208 14.0413 15.1254 14.6201 15.1254 15.243C15.0381 18.1676 10.7079 19.4766 8.724 19.5018C8.44247 19.5017 8.18895 19.3292 8.09333 19.1669C8.05459 19.1011 8.06165 19.0884 8.07702 19.0606C8.688 17.9579 9.02558 16.9589 9.32342 16.0775C9.74067 14.8427 10.0422 13.9506 10.9201 13.2201H10.9202C11.3846 12.8336 11.9554 12.6275 12.5494 12.6275C12.6311 12.6275 12.7131 12.6314 12.7955 12.6393Z" fill="white"/>
</svg>
