<svg width="8" height="16" viewBox="0 0 8 16" fill="none" xmlns="http://www.w3.org/2000/svg">
<path fill-rule="evenodd" clip-rule="evenodd" d="M6.06033 10.9394L1.65095 15.6946C1.27408 16.1009 0.662133 16.1019 0.28411 15.6968C-0.0938641 15.2917 -0.0948308 14.6339 0.281984 14.2275L4.69436 9.46918C5.06518 9.07267 5.26756 8.54877 5.26712 7.99096C5.26669 7.43314 5.06349 6.90966 4.69494 6.51694L0.283096 1.77359C-0.0943471 1.36782 -0.0942985 0.710009 0.283144 0.304297C0.660539 -0.101467 1.27249 -0.101415 1.64988 0.304349L6.05868 5.04443C6.79269 5.82655 7.19908 6.87351 7.2 7.98919C7.20092 9.10487 6.79617 10.1526 6.06033 10.9394Z" fill="white"/>
</svg>
