<svg width="38" height="87" viewBox="0 0 38 87" fill="none" xmlns="http://www.w3.org/2000/svg">
<path d="M37.2637 1.10971e-06V26.3517C29.5178 27.9022 23.7486 34.9504 23.7486 43.2911C23.7486 51.6315 29.5178 58.6795 37.2637 60.23V86.582C37.2637 86.582 37.2636 86.582 37.2637 86.582V60.23C29.5178 58.6795 23.7486 51.6315 23.7486 43.2911C23.7486 34.9504 29.5178 27.9022 37.2637 26.3517V1.10971e-06C37.2636 4.95363e-06 37.2637 -2.73438e-06 37.2637 1.10971e-06Z" fill="#76DECC"/>
<path d="M0.642086 43.2911C0.642086 64.4418 15.8296 81.7093 35.2637 84.3563V61.7927C27.3816 59.4538 21.7486 51.9724 21.7486 43.2911C21.7486 34.6095 27.3816 27.128 35.2637 24.7891V2.2257C15.8296 4.87266 0.642086 22.14 0.642086 43.2911Z" fill="#76DECC"/>
</svg>
